{"title":"The.Amazing.Race.S22E05.HDTV.XviD-Tallyortoby.avi","uid":8276701,"size":367887728,"categoryP":"video","categoryS":"tv_shows","magnet":"?xt=urn:btih:83e7d89ad464554e5db1996d629e1f2d164e2538&amp;dn=The.Amazing.Race.S22E05.HDTV.XviD-Tallyortoby.avi&amp;tr=udp%3A%2F%2Ftracker.openbittorrent.com%3A80&amp;tr=udp%3A%2F%2Fopen.demonii.com%3A1337&amp;tr=udp%3A%2F%2Ftracker.coppersurfer.tk%3A6969&amp;tr=udp%3A%2F%2Fexodus.desync.com%3A6969","seeders":1,"leechers":0,"uploader":"Tallyortoby","files":1,"time":1363730598,"description":"Format                                   : AVI\nFormat/Info                              : Audio Video Interleave\nFile size                                : 351 MiB\nDuration                                 : 43mn 25s\nOverall bit rate                         : 1 130 Kbps\nMovie name                               : The.Amazing.Race.S22E05.HDTV.x264-LOL.mp4\nDirector                                 : created.with.SUPER(C)+Recorder.2013.55\nWriting application                      : SUPER(C)   \n\nVideo\nID                                       : 0\nFormat                                   : MPEG-4 Visual\nFormat profile                           : Advanced Simple@L5\nFormat settings, BVOP                    : No\nFormat settings, QPel                    : No\nFormat settings, GMC                     : No warppoints\nFormat settings, Matrix                  : Default (H.263)\nCodec ID                                 : XVID\nCodec ID/Hint                            : XviD\nDuration                                 : 43mn 25s\nBit rate                                 : 989 Kbps\nWidth                                    : 640 pixels\nHeight                                   : 360 pixels\nDisplay aspect ratio                     : 16:9\nFrame rate                               : 25.000 fps\nColor space                              : YUV\nChroma subsampling                       : 4:2:0\nBit depth                                : 8 bits\nScan type                                : Progressive\nCompression mode                         : Lossy\nBits/(Pixel*Frame)                       : 0.172\nStream size                              : 307 MiB (88%)\nWriting library                          : SUPER(C)   \n\nAudio\nID                                       : 1\nFormat                                   : MPEG Audio\nFormat version                           : Version 1\nFormat profile                           : Layer 3\nMode                                     : Joint stereo\nMode extension                           : MS Stereo\nCodec ID                                 : 55\nCodec ID/Hint                            : MP3\nDuration                                 : 43mn 25s\nBit rate mode                            : Constant\nBit rate                                 : 128 Kbps\nChannel(s)                               : 2 channels\nSampling rate                            : 48.0 KHz\nCompression mode                         : Lossy\nStream size                              : 39.8 MiB (11%)\nAlignment                                : Aligned on interleaves\nInterleave, duration                     : 24 ms (0.60 video frame)","torrent":{"xt":"urn:btih:83e7d89ad464554e5db1996d629e1f2d164e2538","amp;dn":"The.Amazing.Race.S22E05.HDTV.XviD-Tallyortoby.avi","amp;tr":["udp%3A%2F%2Ftracker.openbittorrent.com%3A80","udp%3A%2F%2Fopen.demonii.com%3A1337","udp%3A%2F%2Ftracker.coppersurfer.tk%3A6969","udp%3A%2F%2Fexodus.desync.com%3A6969"],"infoHash":"83e7d89ad464554e5db1996d629e1f2d164e2538","infoHashBuffer":{"type":"Buffer","data":[131,231,216,154,212,100,85,78,93,177,153,109,98,158,31,45,22,78,37,56]},"announce":[],"urlList":[]}}